<mxfile host="65bd71144e">
    <diagram id="5DIWrdhLwUrtFaI1QlfB" name="Page-1">
        <mxGraphModel dx="669" dy="996" grid="1" gridSize="10" guides="1" tooltips="1" connect="1" arrows="1" fold="1" page="1" pageScale="1" pageWidth="827" pageHeight="1169" math="1" shadow="0">
            <root>
                <mxCell id="0"/>
                <mxCell id="1" parent="0"/>
                <mxCell id="259" value="" style="endArrow=blockThin;html=1;rounded=0;startSize=14;endSize=12;sourcePerimeterSpacing=8;targetPerimeterSpacing=8;curved=1;endFill=1;" parent="1" edge="1">
                    <mxGeometry width="50" height="50" relative="1" as="geometry">
                        <mxPoint x="940.6493506493507" y="829.9141914191418" as="sourcePoint"/>
                        <mxPoint x="940.6493506493507" y="323.5115511551155" as="targetPoint"/>
                    </mxGeometry>
                </mxCell>
                <mxCell id="260" value="" style="endArrow=none;html=1;rounded=0;startSize=14;endSize=14;sourcePerimeterSpacing=8;targetPerimeterSpacing=8;curved=1;" parent="1" edge="1">
                    <mxGeometry width="50" height="50" relative="1" as="geometry">
                        <mxPoint x="1012.3376623376623" y="829.9141914191418" as="sourcePoint"/>
                        <mxPoint x="1621.6883116883116" y="829.9141914191418" as="targetPoint"/>
                        <Array as="points">
                            <mxPoint x="1119.8701298701299" y="775.6567656765676"/>
                            <mxPoint x="1137.7922077922078" y="685.2277227722773"/>
                            <mxPoint x="1191.5584415584415" y="540.5412541254125"/>
                            <mxPoint x="1245.3246753246754" y="558.6270627062706"/>
                            <mxPoint x="1299.090909090909" y="775.6567656765676"/>
                            <mxPoint x="1370.7792207792209" y="757.5709570957096"/>
                            <mxPoint x="1424.5454545454545" y="377.76897689768975"/>
                            <mxPoint x="1496.2337662337663" y="395.85478547854785"/>
                            <mxPoint x="1550" y="811.8283828382838"/>
                        </Array>
                    </mxGeometry>
                </mxCell>
                <mxCell id="285" value="Downward&lt;br&gt;Move" style="edgeLabel;html=1;align=center;verticalAlign=middle;resizable=0;points=[];container=0;" vertex="1" connectable="0" parent="260">
                    <mxGeometry x="0.0868" relative="1" as="geometry">
                        <mxPoint x="-15" as="offset"/>
                    </mxGeometry>
                </mxCell>
                <mxCell id="261" value="&lt;font style=&quot;font-size: 25px;&quot;&gt;$$f(x)$$&lt;/font&gt;" style="text;html=1;strokeColor=none;fillColor=none;align=center;verticalAlign=middle;whiteSpace=wrap;rounded=0;container=0;" parent="1" vertex="1">
                    <mxGeometry x="886.8831168831168" y="323.5115511551155" width="286.75324675324674" height="54.257425742574256" as="geometry"/>
                </mxCell>
                <mxCell id="262" value="&lt;font style=&quot;font-size: 19px;&quot;&gt;$$\theta_1$$&lt;/font&gt;" style="text;html=1;align=center;verticalAlign=middle;resizable=0;points=[];autosize=1;strokeColor=none;fillColor=none;fontSize=25;container=0;" parent="1" vertex="1">
                    <mxGeometry x="945.26" y="769.9967656765676" width="130" height="40" as="geometry"/>
                </mxCell>
                <mxCell id="265" value="" style="endArrow=block;html=1;rounded=0;fontSize=25;startSize=14;endSize=5;sourcePerimeterSpacing=8;targetPerimeterSpacing=8;curved=1;endFill=1;" parent="1" edge="1">
                    <mxGeometry width="50" height="50" relative="1" as="geometry">
                        <mxPoint x="1128.8311688311687" y="643.6303630363036" as="sourcePoint"/>
                        <mxPoint x="1141.3766233766232" y="602.0330033003299" as="targetPoint"/>
                    </mxGeometry>
                </mxCell>
                <mxCell id="266" value="" style="endArrow=block;html=1;rounded=0;fontSize=25;startSize=14;endSize=5;sourcePerimeterSpacing=8;targetPerimeterSpacing=8;curved=1;endFill=1;" parent="1" edge="1">
                    <mxGeometry width="50" height="50" relative="1" as="geometry">
                        <mxPoint x="1087.6103896103896" y="748.5280528052805" as="sourcePoint"/>
                        <mxPoint x="1125.2467532467533" y="650.8646864686468" as="targetPoint"/>
                    </mxGeometry>
                </mxCell>
                <mxCell id="267" value="" style="endArrow=block;html=1;rounded=0;fontSize=25;startSize=14;endSize=5;sourcePerimeterSpacing=8;targetPerimeterSpacing=8;curved=1;endFill=1;" parent="1" edge="1">
                    <mxGeometry width="50" height="50" relative="1" as="geometry">
                        <mxPoint x="1008.7532467532467" y="811.8283828382838" as="sourcePoint"/>
                        <mxPoint x="1084.025974025974" y="757.5709570957096" as="targetPoint"/>
                    </mxGeometry>
                </mxCell>
                <mxCell id="268" value="" style="endArrow=block;html=1;rounded=0;fontSize=25;startSize=14;endSize=5;sourcePerimeterSpacing=8;targetPerimeterSpacing=8;curved=1;endFill=1;" parent="1" edge="1">
                    <mxGeometry width="50" height="50" relative="1" as="geometry">
                        <mxPoint x="1143.1688311688313" y="600.2244224422442" as="sourcePoint"/>
                        <mxPoint x="1159.2987012987014" y="558.6270627062706" as="targetPoint"/>
                    </mxGeometry>
                </mxCell>
                <mxCell id="269" value="" style="endArrow=block;html=1;rounded=0;fontSize=25;startSize=14;endSize=5;sourcePerimeterSpacing=8;targetPerimeterSpacing=8;curved=1;endFill=1;" parent="1" edge="1">
                    <mxGeometry width="50" height="50" relative="1" as="geometry">
                        <mxPoint x="1161.090909090909" y="556.8184818481848" as="sourcePoint"/>
                        <mxPoint x="1189.7662337662337" y="535.1155115511551" as="targetPoint"/>
                    </mxGeometry>
                </mxCell>
                <mxCell id="270" value="" style="ellipse;whiteSpace=wrap;html=1;aspect=fixed;fontSize=25;container=0;" parent="1" vertex="1">
                    <mxGeometry x="1204.1038961038962" y="520.6468646864687" width="17.92207792207792" height="17.92207792207792" as="geometry"/>
                </mxCell>
                <mxCell id="271" value="" style="ellipse;whiteSpace=wrap;html=1;aspect=fixed;fontSize=25;fillColor=#dae8fc;strokeColor=#000000;container=0;" parent="1" vertex="1">
                    <mxGeometry x="1447.844155844156" y="365.1089108910891" width="17.92207792207792" height="17.92207792207792" as="geometry"/>
                </mxCell>
                <mxCell id="272" value="" style="shape=flexArrow;endArrow=classic;html=1;rounded=0;fontSize=25;startSize=14;endSize=2.4284644194756555;sourcePerimeterSpacing=8;targetPerimeterSpacing=8;curved=1;width=2.0224719101123596;endWidth=11.292590589507842;" parent="1" edge="1">
                    <mxGeometry width="50" height="50" relative="1" as="geometry">
                        <mxPoint x="1230.987012987013" y="529.6897689768977" as="sourcePoint"/>
                        <mxPoint x="1370.7792207792209" y="649.056105610561" as="targetPoint"/>
                    </mxGeometry>
                </mxCell>
                <mxCell id="279" value="&lt;font style=&quot;font-size: 19px;&quot;&gt;$$\theta_2$$&lt;/font&gt;" style="text;html=1;align=center;verticalAlign=middle;resizable=0;points=[];autosize=1;strokeColor=none;fillColor=none;fontSize=25;container=0;" parent="1" vertex="1">
                    <mxGeometry x="1191.5584415584415" y="594.7986798679867" width="130" height="40" as="geometry"/>
                </mxCell>
                <mxCell id="280" value="&lt;font style=&quot;font-size: 18px;&quot;&gt;Multi-bit&lt;br&gt;Mode&lt;/font&gt;" style="text;html=1;align=center;verticalAlign=middle;resizable=0;points=[];autosize=1;strokeColor=none;fillColor=none;container=0;" vertex="1" parent="1">
                    <mxGeometry x="985.2614285714285" y="700.0035313531354" width="90" height="60" as="geometry"/>
                </mxCell>
                <mxCell id="281" value="Single-bit&lt;br&gt;Mode" style="text;html=1;align=center;verticalAlign=middle;resizable=0;points=[];autosize=1;strokeColor=none;fillColor=none;container=0;" vertex="1" parent="1">
                    <mxGeometry x="1030.2597402597403" y="522.4554455445544" width="70" height="40" as="geometry"/>
                </mxCell>
                <mxCell id="282" value="Trapped&lt;br&gt;search point" style="text;html=1;align=center;verticalAlign=middle;resizable=0;points=[];autosize=1;strokeColor=none;fillColor=none;container=0;" vertex="1" parent="1">
                    <mxGeometry x="1128.8311688311687" y="448.3036303630363" width="90" height="40" as="geometry"/>
                </mxCell>
                <mxCell id="283" value="Transmitted&lt;br&gt;codeword" style="text;html=1;align=center;verticalAlign=middle;resizable=0;points=[];autosize=1;strokeColor=none;fillColor=none;container=0;" vertex="1" parent="1">
                    <mxGeometry x="1376.155844155844" y="300" width="90" height="40" as="geometry"/>
                </mxCell>
            </root>
        </mxGraphModel>
    </diagram>
</mxfile>